<svg width="81" height="81" viewBox="0 0 81 81" fill="none" xmlns="http://www.w3.org/2000/svg">
<path d="M26.0769 78H54.9231M40.5 78V54.9231M63.5769 34.7308C63.5769 25.601 63.5625 10.4585 63.5553 5.88462C63.5553 5.11957 63.2514 4.38585 62.7104 3.84488C62.1694 3.30391 61.4357 3 60.6707 3L20.3239 3.04687C19.5604 3.04687 18.8281 3.34955 18.2874 3.88857C17.7467 4.42759 17.4417 5.15899 17.4393 5.92248C17.4393 11.4357 17.4159 29.2103 17.4159 34.7308C17.4159 46.3197 32.3798 54.9231 40.4928 54.9231C48.6058 54.9231 63.5769 46.3197 63.5769 34.7308ZM63.5769 34.7308C71.9513 34.7308 78 24.494 78 14.5385V11.6538H63.5769M17.4231 11.6538H3V14.5385C3 24.494 9.04868 34.7308 17.4231 34.7308" stroke="url(#paint0_linear)" stroke-width="5" stroke-linecap="round" stroke-linejoin="round"/>
<defs>
<linearGradient id="paint0_linear" x1="3" y1="4.33333" x2="84.9216" y2="13.0657" gradientUnits="userSpaceOnUse">
<stop stop-color="#7F7FD5"/>
<stop offset="0.520833" stop-color="#86A8E7"/>
<stop offset="1" stop-color="#91EAE4"/>
</linearGradient>
</defs>
</svg>
